<svg width="549" height="482" viewBox="0 0 549 482" fill="none" xmlns="http://www.w3.org/2000/svg">
<g filter="url(#filter0_d)">
<path d="M495.841 22.7377L482.52 111.297C480.198 126.734 468.586 140.018 452.269 145.905L351.349 182.313" stroke="white" stroke-width="3"/>
<path d="M214.118 343.926L157.648 418.125C149.268 429.135 135.408 435.43 120.393 435.046L11.0005 432.246" stroke="white" stroke-width="3"/>
<ellipse rx="11.2728" ry="10.8985" transform="matrix(0.844745 0.535169 -0.522377 0.852715 15.9164 432.242)" fill="white"/>
<ellipse rx="12.651" ry="11.7336" transform="matrix(0.791054 0.611746 -0.634317 0.773073 495.655 16.8101)" fill="white"/>
<path d="M360.76 179.457L265.957 210.308C249.432 215.685 237.312 228.61 234.383 243.978L216.266 339.031" stroke="#F95F2A" stroke-width="3"/>
<ellipse rx="12.651" ry="11.7336" transform="matrix(0.791051 0.61175 -0.634321 0.77307 211.187 341.966)" fill="#F95F2A"/>
<ellipse rx="12.651" ry="11.7336" transform="matrix(0.791051 0.61175 -0.634321 0.77307 351.947 182.432)" fill="#F95F2A"/>
</g>
<defs>
<filter id="filter0_d" x="0.820038" y="4.88599" width="511.308" height="446.437" filterUnits="userSpaceOnUse" color-interpolation-filters="sRGB">
<feFlood flood-opacity="0" result="BackgroundImageFix"/>
<feColorMatrix in="SourceAlpha" type="matrix" values="0 0 0 0 0 0 0 0 0 0 0 0 0 0 0 0 0 0 127 0" result="hardAlpha"/>
<feOffset dy="4"/>
<feGaussianBlur stdDeviation="2"/>
<feComposite in2="hardAlpha" operator="out"/>
<feColorMatrix type="matrix" values="0 0 0 0 0 0 0 0 0 0 0 0 0 0 0 0 0 0 0.25 0"/>
<feBlend mode="normal" in2="BackgroundImageFix" result="effect1_dropShadow"/>
<feBlend mode="normal" in="SourceGraphic" in2="effect1_dropShadow" result="shape"/>
</filter>
</defs>
</svg>
